<?xml version="1.0" encoding="UTF-8"?>
<svg width="32px" height="32px" viewBox="0 0 32 32" xmlns="http://www.w3.org/2000/svg" xmlns:xlink="http://www.w3.org/1999/xlink" version="1.1">
 <!-- Generated by Pixelmator Pro 2.0.8 -->
 <path id="Rectangle" d="M0 32 L32 32 32 0 0 0 Z" fill="#ffffff" fill-opacity="1" stroke="none"/>
 <path id="u" d="M12.145 5.711 L12.145 18.543 C12.145 19.754 12.288 20.665 12.574 21.277 13.082 22.358 14.078 22.898 15.563 22.898 17.464 22.898 18.766 22.13 19.469 20.594 19.833 19.76 20.016 18.66 20.016 17.293 L20.016 5.711 25.66 5.711 25.66 27 20.25 27 20.25 23.992 C20.198 24.057 20.068 24.253 19.859 24.578 19.651 24.904 19.404 25.19 19.117 25.438 18.245 26.219 17.402 26.753 16.588 27.039 15.774 27.326 14.82 27.469 13.727 27.469 10.576 27.469 8.453 26.336 7.359 24.07 6.747 22.82 6.441 20.978 6.441 18.543 L6.441 5.711 Z" fill="#000000" fill-opacity="1" stroke="none"/>
</svg>
